<svg xmlns="http://www.w3.org/2000/svg" fill='#ffffff' data-name="Layer 1" viewBox="0 0 100 125" x="0px" y="0px"><title>Artboard 1</title><path d="M68.13,68.64a.26.26,0,0,1-.19-.26V64.66a28.48,28.48,0,0,0,4.77-9.44c2.45-2.43,3.54-6.27,4.13-8.34,1-3.36,1.91-8.23-.72-11.72L76,35c1.27-6.11,2.85-20.55-8.12-27.87a6.76,6.76,0,0,0,1.93-4.93.65.65,0,0,0-.23-.46.69.69,0,0,0-.49-.15c-.14,0-13.86,1.56-20.47.19-6.78-1.41-14.24,3.74-15.77,9a10,10,0,0,0-6.5,3.67c-3,3.69-3.91,9.58-2.73,17.47.08,1,.2,2,.38,3l-.12.15c-2.63,3.48-1.67,8.35-.72,11.72.59,2.07,1.67,5.91,4.12,8.33a28.6,28.6,0,0,0,4.77,9.51v3.66a.25.25,0,0,1-.19.26C22.48,70.8.65,77.72.65,95a3.41,3.41,0,0,0,3.41,3.41H95.94A3.41,3.41,0,0,0,99.35,95C99.35,77.72,77.52,70.8,68.13,68.64ZM50,81.89a18,18,0,0,1-14.76-7.34,7,7,0,0,0,3.21-3.82,22.85,22.85,0,0,0,4.93,2.46,19.85,19.85,0,0,0,13.24,0,23.34,23.34,0,0,0,4.91-2.48,7,7,0,0,0,3.23,3.87A18,18,0,0,1,50,81.89ZM29.05,45.21c-1.21-4.27-.7-5.82-.29-6.36a1.39,1.39,0,0,1,1.2-.52h.29a.65.65,0,0,0,.68-.6c0-.09.76-9.29,6.21-12.6,2.72-1.66,6.22-1.59,10.39.19C56.07,29,62.43,28.74,66.3,27.88c4.41,3.26,3.14,8.46,2.84,9.48l0,.13a.65.65,0,0,0,.1.62.65.65,0,0,0,.57.25,1.56,1.56,0,0,1,1.46.51c.41.54.92,2.09-.29,6.36-1.55,5.47-2.81,6-3.16,6a.64.64,0,0,0-.59.55c-.9,5.83-5.54,13.07-12.66,15.64a13.64,13.64,0,0,1-9.13,0C38,64.81,33.68,57.48,32.8,51.77a.64.64,0,0,0-.59-.55C31.86,51.19,30.6,50.68,29.05,45.21Z"/><text x="0" y="115" fill="#000000" font-size="5px" font-weight="bold" font-family="'Helvetica Neue', Helvetica, Arial-Unicode, Arial, Sans-serif"></text><text x="0" y="120" fill="#000000" font-size="5px" font-weight="bold" font-family="'Helvetica Neue', Helvetica, Arial-Unicode, Arial, Sans-serif"></text></svg>